<?xml version="1.0" encoding="UTF-8" standalone="no"?>
<!-- Created with Inkscape (http://www.inkscape.org/) -->

<svg
   xmlns:dc="http://purl.org/dc/elements/1.1/"
   xmlns:cc="http://creativecommons.org/ns#"
   xmlns:rdf="http://www.w3.org/1999/02/22-rdf-syntax-ns#"
   xmlns:svg="http://www.w3.org/2000/svg"
   xmlns="http://www.w3.org/2000/svg"
   xmlns:sodipodi="http://sodipodi.sourceforge.net/DTD/sodipodi-0.dtd"
   xmlns:inkscape="http://www.inkscape.org/namespaces/inkscape"
   width="960"
   height="88"
   id="svg5240"
   version="1.1"
   inkscape:version="0.48.3.1 r9886"
   sodipodi:docname="bglines.svg">
  <defs
     id="defs5242">
    <inkscape:path-effect
       effect="skeletal"
       id="path-effect5072"
       is_visible="true"
       pattern="m -152.90058,445.04411 1,0"
       copytype="single_stretched"
       prop_scale="5"
       scale_y_rel="false"
       spacing="0"
       normal_offset="0"
       tang_offset="0"
       prop_units="false"
       vertical_pattern="false"
       fuse_tolerance="0" />
    <inkscape:path-effect
       effect="skeletal"
       id="path-effect5155"
       is_visible="true"
       pattern="m -253.33887,378.94203 603.25887,1.3505 542.59338,-0.032 -542.80522,-0.8606 z"
       copytype="single_stretched"
       prop_scale="2"
       scale_y_rel="false"
       spacing="0"
       normal_offset="0"
       tang_offset="0"
       prop_units="false"
       vertical_pattern="false"
       fuse_tolerance="0" />
    <inkscape:path-effect
       effect="skeletal"
       id="path-effect5837"
       is_visible="true"
       pattern="m -26.949257,-153.19285 c 50.27158,0.1125 316.617537,1.3132 316.461937,2.2929 l -21.97536,138.382404 23.35096,-138.348904 285.4213,-0.9759 271.3914,0.6036 273.22232,1.3847 -543.95002,-2.892 7.8874,-180.7349 -8.7629,180.746 z"
       copytype="single_stretched"
       prop_scale="5"
       scale_y_rel="false"
       spacing="0"
       normal_offset="0"
       tang_offset="0"
       prop_units="false"
       vertical_pattern="false"
       fuse_tolerance="0" />
    <inkscape:path-effect
       effect="skeletal"
       id="path-effect5898"
       is_visible="true"
       pattern="m 230.44894,-537.90258 c 416.2039,20.0919 824.97286,13.0274 1390.72966,1.0545 0,0 -672.00406,2.8536 -1390.72966,-1.0545 z"
       copytype="single_stretched"
       prop_scale="0.3"
       scale_y_rel="false"
       spacing="0"
       normal_offset="0"
       tang_offset="0"
       prop_units="false"
       vertical_pattern="false"
       fuse_tolerance="0" />
    <inkscape:path-effect
       effect="skeletal"
       id="path-effect5943"
       is_visible="true"
       pattern="m -101.43771,-1234.8282 c 416.2039,20.0919 824.9729,13.0274 1390.72971,1.0545 0,0 -672.00411,2.8536 -1390.72971,-1.0545 z"
       copytype="single_stretched"
       prop_scale="0.2"
       scale_y_rel="false"
       spacing="0"
       normal_offset="0"
       tang_offset="0"
       prop_units="false"
       vertical_pattern="false"
       fuse_tolerance="0" />
    <filter
       id="filter6002"
       inkscape:label="filter6002"
       inkscape:menu="Bevels"
       inkscape:menu-tooltip="Soft, cushion-like bevel with matte highlights"
       color-interpolation-filters="sRGB">
      <feGaussianBlur
         id="feGaussianBlur6004"
         result="result1"
         stdDeviation="0.01" />
      <feSpecularLighting
         id="feSpecularLighting6006"
         result="result0"
         specularExponent="18.1"
         specularConstant="2"
         surfaceScale="5">
        <feDistantLight
           id="feDistantLight6008"
           azimuth="225"
           elevation="24" />
      </feSpecularLighting>
      <feComposite
         id="feComposite6010"
         in2="SourceAlpha"
         result="result6"
         operator="in" />
      <feMorphology
         id="feMorphology6012"
         radius="5.7"
         operator="dilate" />
      <feGaussianBlur
         id="feGaussianBlur6014"
         result="result11"
         stdDeviation="5.7" />
      <feDiffuseLighting
         id="feDiffuseLighting6016"
         surfaceScale="-588.05970149253733"
         result="result3"
         diffuseConstant="2"
         in="result1">
        <feDistantLight
           id="feDistantLight6018"
           elevation="25"
           azimuth="225" />
      </feDiffuseLighting>
      <feBlend
         id="feBlend6020"
         in2="SourceGraphic"
         result="result7"
         mode="multiply"
         in="result3" />
      <feComposite
         id="feComposite6022"
         in2="SourceAlpha"
         in="result7"
         operator="in"
         result="result91" />
      <feBlend
         id="feBlend6024"
         in2="result91"
         result="result9"
         mode="lighten"
         in="result6" />
      <feComposite
         id="feComposite6026"
         in2="result9"
         in="result11" />
    </filter>
    <inkscape:path-effect
       effect="skeletal"
       id="path-effect5155-2"
       is_visible="true"
       pattern="m -253.00962,378.74234 603.25887,1.3505 542.59338,-0.032 -542.80522,-0.8606 z"
       copytype="single_stretched"
       prop_scale="5"
       scale_y_rel="false"
       spacing="0"
       normal_offset="0"
       tang_offset="0"
       prop_units="false"
       vertical_pattern="false"
       fuse_tolerance="0" />
    <inkscape:path-effect
       effect="skeletal"
       id="path-effect5155-2-0"
       is_visible="true"
       pattern="m -251.82855,377.42032 603.25887,1.3505 542.59338,-0.032 -542.80522,-0.8606 z"
       copytype="single_stretched"
       prop_scale="8"
       scale_y_rel="false"
       spacing="0"
       normal_offset="0"
       tang_offset="0"
       prop_units="false"
       vertical_pattern="false"
       fuse_tolerance="0" />
    <inkscape:path-effect
       effect="skeletal"
       id="path-effect5943-2"
       is_visible="true"
       pattern="m -101.25173,-1233.1116 c 416.2039,20.0919 824.9729,13.0274 1390.72963,1.0545 0,0 -672.00403,2.8536 -1390.72963,-1.0545 z"
       copytype="single_stretched"
       prop_scale="0.5"
       scale_y_rel="false"
       spacing="0"
       normal_offset="0"
       tang_offset="0"
       prop_units="false"
       vertical_pattern="false"
       fuse_tolerance="0" />
    <inkscape:path-effect
       effect="skeletal"
       id="path-effect5943-2-5"
       is_visible="true"
       pattern="m -101.5793,-1233.8559 c 416.2039,20.0919 824.9729,13.0274 1390.7296,1.0545 0,0 -672.004,2.8536 -1390.7296,-1.0545 z"
       copytype="single_stretched"
       prop_scale="0.35"
       scale_y_rel="false"
       spacing="0"
       normal_offset="0"
       tang_offset="0"
       prop_units="false"
       vertical_pattern="false"
       fuse_tolerance="0" />
  </defs>
  <sodipodi:namedview
     id="base"
     pagecolor="#ffffff"
     bordercolor="#666666"
     borderopacity="1.0"
     inkscape:pageopacity="0.0"
     inkscape:pageshadow="2"
     inkscape:zoom="4.8"
     inkscape:cx="419.9169"
     inkscape:cy="52.566753"
     inkscape:current-layer="layer1"
     inkscape:document-units="px"
     showgrid="false"
     inkscape:window-width="1024"
     inkscape:window-height="718"
     inkscape:window-x="0"
     inkscape:window-y="0"
     inkscape:window-maximized="1"
     showguides="true"
     inkscape:guide-bbox="true" />
  <metadata
     id="metadata5245">
    <rdf:RDF>
      <cc:Work
         rdf:about="">
        <dc:format>image/svg+xml</dc:format>
        <dc:type
           rdf:resource="http://purl.org/dc/dcmitype/StillImage" />
        <dc:title></dc:title>
      </cc:Work>
    </rdf:RDF>
  </metadata>
  <g
     id="layer1"
     inkscape:label="Layer 1"
     inkscape:groupmode="layer"
     transform="translate(0,-1112)">
    <path
       style="fill:#fefefe;fill-opacity:1;stroke:none"
       d="m 0.03988515,1115.3429 c 52.92671485,0.6061 105.75776485,2.2858 158.60676485,5.3882 52.849,3.1025 105.71655,7.6259 158.71324,13.9779 37.16003,4.4538 74.37925,9.8179 111.56928,16.6621 26.2993,4.8403 52.60628,10.3396 78.63583,17.4289 8.92984,2.4322 17.8209,5.0515 26.58754,8.0696 3e-5,0 5e-5,0 8e-5,0 6.08231,2.0953 12.11075,4.332 17.86748,7.1188 3e-5,0 5e-5,0 7e-5,10e-5 1.9281,0.9341 3.81251,1.9199 5.58087,3.055 2e-5,0 4e-5,0 6e-5,0 1.21448,0.7875 2.3638,1.5886 3.25464,2.5623 0.30006,0.3311 0.55996,0.6505 0.72643,0.9755 0.1189,0.2476 0.20842,0.4621 0.20345,0.6241 0.009,0.1208 -0.0235,0.2602 -0.0844,0.3685 -0.0685,0.1539 -0.24601,0.3142 -0.46485,0.4928 -0.71404,0.57 -1.74801,0.8546 -2.86166,1.1487 -1.729,0.4241 -3.54331,0.6221 -5.39186,0.7607 -3e-5,0 -5e-5,0 -8e-5,0 -5.92556,0.4382 -11.92952,0.1383 -17.95253,-0.2902 -3e-5,0 -5e-5,0 -8e-5,0 -9.1492,-0.6547 -18.29135,-1.7794 -27.43545,-3.0911 -12.34266,-1.7711 -24.67285,-3.9193 -37.00825,-6.2757 -3e-5,0 -6e-5,0 -8e-5,0 -19.00127,-3.6301 -38.07833,-7.3465 -57.17145,-11.4615 -11.95226,-2.5768 -23.92183,-5.2021 -35.68592,-8.6424 -3.43566,-1.006 -6.83625,-2.0603 -10.0967,-3.4041 -1.08645,-0.4485 -2.14135,-0.9191 -3.12852,-1.4685 -0.68937,-0.3909 -1.32159,-0.7724 -1.80221,-1.2335 -0.28192,-0.323 -0.52099,-0.5329 -0.49069,-0.6536 -0.003,-0.016 -0.004,-0.034 -0.002,-0.034 -0.006,-0.013 0.03,-0.062 0.0807,-0.1397 0.16962,-0.267 0.57446,-0.4877 1.05597,-0.7669 0.72099,-0.3822 1.53524,-0.6685 2.39339,-0.9398 2e-5,0 5e-5,0 8e-5,0 2.67464,-0.8376 5.49452,-1.3314 8.35819,-1.7879 3e-5,0 6e-5,0 9e-5,0 4.22221,-0.6688 8.49073,-1.1505 12.78147,-1.5772 12.57827,-1.2503 25.26359,-2.0019 38.01198,-2.7024 39.92172,-2.1926 80.38411,-3.6216 121.40282,-5.3875 55.8202,-2.7453 112.71081,-4.9891 170.85044,-6.2131 41.24612,-0.8683 83.12242,-1.283 125.66334,-0.4439 15.12346,0.2983 30.32995,0.7599 45.60951,1.5517 11.29578,0.5853 22.63349,1.3301 33.97795,2.5201 4.20079,0.4406 8.40166,0.9444 12.59113,1.5721 3.22759,0.4837 6.4494,1.0347 9.63887,1.7523 2.25902,0.5085 4.50819,1.0833 6.66845,1.9096 0.7588,0.2903 1.50514,0.612 2.2124,1.0042 0.52478,0.2914 1.03076,0.6171 1.45799,1.0262 0.30739,0.2962 0.57795,0.6364 0.70541,1.0285 0.11005,0.3305 0.10139,0.7003 -0.0149,1.0317 -0.14215,0.4106 -0.42458,0.7685 -0.74214,1.0865 -0.44233,0.4407 -0.96201,0.8036 -1.50162,1.1335 -1.64275,1.0034 -3.45988,1.7038 -5.28896,2.3435 -2.72578,0.9528 -5.52042,1.7139 -8.33299,2.4073 -8.48171,2.0913 -17.13626,3.5679 -25.83145,4.9084 -12.60448,1.9432 -25.33089,3.4976 -38.13648,4.8931 -37.2213,4.0565 -75.12636,6.7845 -113.62636,9.0843 -53.52215,3.1973 -108.22899,5.4037 -164.17438,7.0548 0,0 14.9232,-0.3559 42.91434,-1.2712 13.99556,-0.4577 31.25794,-1.0627 51.55158,-1.9078 20.29364,-0.8452 43.6187,-1.9289 69.73445,-3.4148 16.74662,-0.9528 34.64562,-2.0496 53.62013,-3.4452 18.97451,-1.3955 39.02466,-3.0888 60.06255,-5.3225 12.39975,-1.3164 25.14899,-2.8194 38.1868,-4.7927 8.53298,-1.2909 17.22144,-2.7338 25.92574,-4.854 2.81168,-0.6845 5.63791,-1.4449 8.42758,-2.4107 3e-5,0 6e-5,0 8e-5,0 1.84447,-0.6345 3.72684,-1.3577 5.48519,-2.4186 0.57743,-0.346 1.15974,-0.7552 1.68962,-1.2736 2e-5,0 4e-5,-10e-5 7e-5,-10e-5 0.38821,-0.3661 0.752,-0.8493 0.9859,-1.4637 0.18966,-0.5365 0.20238,-1.1233 0.0257,-1.6825 -0.21828,-0.6117 -0.57457,-1.0912 -0.963,-1.4451 -0.52223,-0.4949 -1.09704,-0.8739 -1.66428,-1.1851 -3e-5,0 -5e-5,0 -8e-5,0 -0.76421,-0.4248 -1.55304,-0.7692 -2.33971,-1.0712 -3e-5,0 -5e-5,0 -8e-5,0 -2.22157,-0.8542 -4.51661,-1.4512 -6.80539,-1.9707 -3.20167,-0.7289 -6.4471,-1.2949 -9.70936,-1.7923 -4.1737,-0.6366 -8.38913,-1.1551 -12.6344,-1.6116 -3e-5,0 -6e-5,0 -8e-5,0 -11.13094,-1.197 -22.48866,-1.9858 -34.03116,-2.6135 -14.90023,-0.8106 -30.12381,-1.3241 -45.64531,-1.6688 -39.99516,-0.8884 -81.98567,-0.6761 -125.72278,0.1497 -54.39671,1.0269 -111.50689,3.064 -170.90602,5.8932 -39.48387,1.6385 -80.01831,3.0006 -121.42929,5.2352 -12.62259,0.681 -25.34165,1.4185 -38.10716,2.6772 -4.29521,0.4234 -8.60474,0.9064 -12.90423,1.5838 -4e-5,0 -7e-5,0 -1.1e-4,10e-5 -2.88277,0.4522 -5.80313,0.9665 -8.65951,1.8524 -0.91406,0.2817 -1.84636,0.6161 -2.74756,1.0843 -0.59317,0.2914 -1.23055,0.7063 -1.7535,1.35 -0.1954,0.2442 -0.35669,0.5474 -0.45617,0.9034 -0.0865,0.3397 -0.092,0.6867 -0.0201,1.0186 0.20995,0.7928 0.65734,1.3716 1.11592,1.7597 0.69588,0.6439 1.46828,1.1284 2.2228,1.5418 1.09375,0.6066 2.22269,1.1137 3.35072,1.5777 3e-5,0 7e-5,0 1.1e-4,0 3.36926,1.3876 6.84026,2.4696 10.30844,3.4841 11.7514,3.4407 23.77013,6.0909 35.83325,8.693 18.86864,4.0709 37.96775,7.7986 57.2216,11.4733 12.2617,2.3403 24.6265,4.495 37.10876,6.2805 9.12278,1.3053 18.31636,2.4339 27.58819,3.092 6.03319,0.4301 12.14008,0.7284 18.25924,0.2764 4e-5,0 8e-5,0 1.3e-4,0 1.89903,-0.1388 3.82812,-0.3563 5.73561,-0.8199 5e-5,0 9e-5,0 1.3e-4,0 1.19542,-0.2741 2.48503,-0.6809 3.62742,-1.5155 0.39225,-0.2844 0.76394,-0.6709 1.04719,-1.1711 0.24552,-0.4558 0.36111,-0.9685 0.33392,-1.4883 -0.0427,-0.5694 -0.21402,-1.0741 -0.44879,-1.4952 -0.2958,-0.545 -0.66085,-1.011 -1.04204,-1.4154 -1.10198,-1.1759 -2.38737,-2.0891 -3.66384,-2.8983 -1.87159,-1.1958 -3.82957,-2.2205 -5.80222,-3.1713 -5.86018,-2.826 -11.96648,-5.0899 -18.10454,-7.1934 -8.7875,-3.0131 -17.72476,-5.6371 -26.72722,-8.0749 -25.79237,-6.9848 -52.17326,-12.4808 -78.829,-17.327 -36.71964,-6.6765 -74.0307,-11.9863 -111.72354,-16.3799 -51.82093,-6.0403 -104.36369,-10.3803 -157.36925,-13.2552 -53.00557,-2.8749 -106.473532,-4.286 -160.13374485,-4.5335 0,0 0,0 0,0 z"
       id="path5930"
       inkscape:connector-curvature="0"
       sodipodi:nodetypes="cscc"
       inkscape:path-effect="#path-effect5943"
       inkscape:original-d="M 0.03513967,1116.6084 C 503.69935,1118.4971 693.76538,1228.1296 470.35172,1185.5501 c -182.17205,-34.7193 -123.0843,-34.2339 75.89459,-42.4983 515.16339,-24.5547 557.71039,26.4434 51.74633,39.6651" />
    <path
       style="fill:#fefefe;fill-opacity:0.17180619;stroke:none"
       d="m 0.2329907,1115.1613 c 52.9515033,1.2175 105.7850893,3.4262 158.6159293,6.9793 52.83083,3.5531 105.65957,8.4489 158.60231,15.1009 37.12201,4.6641 74.29252,10.202 111.42124,17.1843 26.25851,4.939 52.50699,10.5154 78.45455,17.6586 8.90143,2.4508 17.75136,5.0817 26.46274,8.1039 3e-5,0 5e-5,0 8e-5,10e-5 6.05085,2.1025 12.01189,4.3268 17.66259,7.0799 3e-5,10e-5 5e-5,10e-5 8e-5,10e-5 1.89189,0.9236 3.71388,1.8795 5.39294,2.965 2e-5,0 4e-5,0 7e-5,0 1.16268,0.7713 2.19727,1.4804 2.90943,2.2853 0.23183,0.2701 0.40322,0.4672 0.4608,0.6081 0.0215,0.1026 0.0421,0.074 -0.003,-0.1056 -0.007,-0.2136 0.0301,-0.3872 0.12372,-0.5707 0.11129,-0.1368 0.0964,-0.1667 0.0229,-0.077 -0.35585,0.3473 -1.17523,0.5276 -2.21973,0.8371 -1.581,0.3893 -3.29871,0.5687 -5.10311,0.705 -2e-5,0 -5e-5,0 -8e-5,0 -5.78025,0.4218 -11.69625,0.112 -17.69237,-0.3193 -2e-5,0 -5e-5,0 -8e-5,0 -9.08682,-0.6631 -18.18395,-1.795 -27.30209,-3.1128 -12.30395,-1.7793 -24.60348,-3.9336 -36.91726,-6.2941 -3e-5,0 -6e-5,0 -9e-5,0 -18.99398,-3.6416 -38.05511,-7.361 -57.12343,-11.4705 -11.94695,-2.5769 -23.87279,-5.1883 -35.55492,-8.6011 -3.41508,-1.0007 -6.75321,-2.0313 -9.90946,-3.3329 -1.05064,-0.4353 -2.04008,-0.8735 -2.93221,-1.3718 -0.63218,-0.3712 -1.14044,-0.6618 -1.43039,-0.9608 -0.12595,-0.2655 -0.18083,-0.1494 0.0619,0.3242 0.0584,0.2637 0.0503,0.5353 -0.0207,0.8369 -0.0994,0.2898 -0.17399,0.4661 -0.25133,0.5352 -0.14252,0.066 0.0568,0.017 0.4394,-0.2517 0.5622,-0.3065 1.27205,-0.5503 2.08013,-0.8123 2e-5,0 5e-5,0 7e-5,0 2.51967,-0.797 5.25089,-1.2722 8.09195,-1.7321 3e-5,0 6e-5,0 9e-5,0 4.16663,-0.6639 8.39894,-1.1445 12.67272,-1.5739 12.52777,-1.257 25.18509,-2.0201 37.92738,-2.7366 39.89684,-2.2412 80.35161,-3.7425 121.37601,-5.602 55.80491,-2.8716 112.67655,-5.28 170.79988,-6.7011 41.23469,-1.0079 83.09593,-1.579 125.62786,-0.9105 15.12014,0.2377 30.32238,0.6367 45.59886,1.3641 11.29404,0.538 22.62762,1.2339 33.96918,2.3742 4.19961,0.4222 8.39835,0.9072 12.58554,1.516 3.22614,0.4691 6.44448,1.005 9.62976,1.707 2.25703,0.498 4.49903,1.0598 6.64937,1.8718 0.75507,0.2853 1.49501,0.6 2.19369,0.9835 0.51869,0.286 1.01415,0.6004 1.42707,0.9935 0.29513,0.2853 0.55298,0.6013 0.66737,0.9572 0.10071,0.2931 0.0944,0.6285 -0.009,0.9279 -0.12602,0.3793 -0.39442,0.7192 -0.6999,1.0311 -0.42734,0.4309 -0.93638,0.7891 -1.46909,1.1188 -1.62306,1.0025 -3.42927,1.7074 -5.25296,2.355 -2.71629,0.9632 -5.50485,1.736 -8.3131,2.4419 -8.46868,2.1285 -17.11716,3.6443 -25.80678,5.0245 -12.59662,2.0009 -25.31845,3.6142 -38.11957,5.0696 -37.20826,4.2304 -75.11092,7.141 -113.60622,9.6292 -53.51733,3.4594 -108.22702,5.9408 -164.17597,7.8757 0,0 14.92548,-0.3712 42.92258,-1.3103 13.99855,-0.4695 31.26486,-1.0885 51.56377,-1.949 20.29891,-0.8605 43.63058,-1.9609 69.75466,-3.464 16.75094,-0.9636 34.65693,-2.0718 53.64189,-3.4791 18.98495,-1.4072 39.04901,-3.1126 60.10505,-5.3585 12.41058,-1.3236 25.179,-2.8351 38.24539,-4.8186 8.54657,-1.2958 17.27332,-2.75 26.04251,-4.8886 2.83272,-0.6899 5.69951,-1.4634 8.5497,-2.4504 3e-5,0 5e-5,0 8e-5,0 1.87356,-0.6383 3.84174,-1.4027 5.74352,-2.5425 0.62838,-0.3707 1.29381,-0.8451 1.93911,-1.4692 3e-5,-10e-5 6e-5,-10e-5 9e-5,-10e-5 0.48261,-0.4327 0.95421,-1.0859 1.30939,-1.9741 0.28687,-0.813 0.30309,-1.6905 0.0359,-2.5549 -0.34164,-0.9056 -0.81405,-1.5699 -1.31136,-1.9991 -0.65128,-0.6081 -1.31899,-1.0556 -1.94282,-1.3904 -3e-5,0 -6e-5,0 -9e-5,-10e-5 -0.84292,-0.4662 -1.68929,-0.8371 -2.51217,-1.1509 -2e-5,0 -5e-5,0 -8e-5,0 -2.31908,-0.8878 -4.67644,-1.5029 -6.99173,-2.0248 -3.24718,-0.7375 -6.52492,-1.3084 -9.80597,-1.8069 -4.19975,-0.6388 -8.43506,-1.1583 -12.69385,-1.6146 -2e-5,-1e-4 -5e-5,-1e-4 -8e-5,-1e-4 -11.16519,-1.1963 -22.54689,-1.9832 -34.10228,-2.6076 -14.91893,-0.8067 -30.15696,-1.3163 -45.68828,-1.657 -40.01977,-0.8779 -82.02862,-0.657 -125.77638,0.1751 -54.41017,1.0345 -111.53145,3.0747 -170.93888,5.9012 -39.4764,1.6361 -80.01441,2.9937 -121.4422,5.2214 -12.62642,0.6785 -25.36455,1.4147 -38.16534,2.6736 -4.3069,0.4232 -8.64152,0.9084 -12.97978,1.5904 -4e-5,0 -8e-5,0 -1.2e-4,0 -2.89839,0.4507 -5.88033,0.9786 -8.84486,1.8935 -0.9489,0.2884 -1.95389,0.6526 -2.96578,1.1737 -0.66206,0.2991 -1.44257,0.8336 -2.1831,1.7093 -0.28456,0.3468 -0.52294,0.8067 -0.68744,1.3739 -0.13796,0.5495 -0.14792,1.0987 -0.0333,1.6254 0.35799,1.2068 0.9338,2.0128 1.50115,2.441 0.82872,0.7565 1.68758,1.3043 2.48202,1.7314 1.15996,0.6421 2.33457,1.1715 3.4876,1.6447 4e-5,10e-5 8e-5,10e-5 1.2e-4,10e-5 3.44175,1.4165 6.95642,2.5149 10.43897,3.5331 11.80796,3.4596 23.85719,6.1215 35.92323,8.7273 18.88446,4.0806 37.99285,7.8173 57.24883,11.5002 12.27507,2.348 24.65961,4.5113 37.16843,6.3064 9.14021,1.3122 18.36546,2.4485 27.68392,3.1148 6.05289,0.4375 12.22594,0.7386 18.45922,0.2847 4e-5,0 8e-5,0 1.3e-4,0 1.93356,-0.1371 3.93813,-0.3656 5.96247,-0.853 4e-5,0 8e-5,0 1.3e-4,0 1.25006,-0.2599 2.70835,-0.746 4.13414,-1.754 0.50709,-0.354 1.00738,-0.8896 1.433,-1.6186 0.36789,-0.6853 0.53887,-1.4448 0.49999,-2.2286 -0.0739,-0.839 -0.29887,-1.5361 -0.60997,-2.0722 -0.38098,-0.691 -0.81531,-1.2545 -1.24983,-1.708 -1.24125,-1.3116 -2.61631,-2.3006 -3.93247,-3.1253 -1.94031,-1.2391 -3.94633,-2.292 -5.94614,-3.2554 -5.93922,-2.8656 -12.09608,-5.1541 -18.25523,-7.2666 -8.82585,-3.0312 -17.79147,-5.6693 -26.81182,-8.1172 -25.84287,-7.0138 -52.2606,-12.5356 -78.93748,-17.4038 -36.75261,-6.7081 -74.0918,-12.051 -111.8069,-16.4788 -51.85103,-6.0872 -104.42328,-10.4794 -157.45769,-13.4122 -53.03442,-2.9328 -106.5306,-4.4075 -160.2180093,-4.7245 0,0 0,0 0,0 z"
       id="path5930-1"
       inkscape:connector-curvature="0"
       sodipodi:nodetypes="cscc"
       inkscape:path-effect="#path-effect5943-2"
       inkscape:original-d="m 0.221127,1118.325 c 503.664203,1.8887 693.730233,111.5212 470.316573,68.9417 -182.17205,-34.7193 -123.0843,-34.2339 75.89459,-42.4983 515.16331,-24.5547 557.71031,26.4434 51.74633,39.6651" />
    <path
       style="fill:#fefefe;fill-opacity:0.25110133;stroke:none"
       d="m -0.09814441,1115.3661 c 52.93910941,0.9118 105.77143441,2.856 158.61134441,6.1838 52.83992,3.3278 105.68806,8.0374 158.65778,14.5393 37.14102,4.559 74.33589,10.01 111.49526,16.9233 26.2789,4.8896 52.55663,10.4274 78.54519,17.5437 8.91564,2.4415 17.78613,5.0666 26.52514,8.0867 3e-5,10e-5 5e-5,10e-5 8e-5,10e-5 6.06658,2.0989 12.06132,4.3294 17.76504,7.0994 2e-5,0 5e-5,0 7e-5,0 1.91,0.9289 3.76319,1.8998 5.4869,3.01 3e-5,0 5e-5,10e-5 7e-5,10e-5 1.18858,0.7793 2.28053,1.5345 3.08203,2.4238 0.26595,0.3006 0.48159,0.5588 0.59362,0.7917 0.0702,0.1752 0.12523,0.2681 0.10005,0.2593 0.001,-0.046 0.003,-0.063 0.0196,-0.1011 0.0214,0.01 -0.0748,0.074 -0.22096,0.2077 -0.53494,0.4587 -1.46162,0.6912 -2.54069,0.993 -1.65501,0.4067 -3.42102,0.5953 -5.24749,0.7328 -2e-5,0 -5e-5,0 -8e-5,0 -5.8529,0.43 -11.81289,0.1251 -17.82245,-0.3048 -3e-5,0 -5e-5,0 -8e-5,0 -9.11801,-0.6589 -18.23765,-1.7872 -27.36877,-3.1019 -12.3233,-1.7752 -24.63817,-3.9265 -36.96276,-6.2849 -2e-5,0 -5e-5,0 -8e-5,0 -18.99762,-3.6359 -38.06672,-7.3537 -57.14744,-11.466 -11.94961,-2.5768 -23.89731,-5.1952 -35.62042,-8.6217 -3.42537,-1.0034 -6.79473,-2.0459 -10.00308,-3.3686 -1.06854,-0.4418 -2.09072,-0.8963 -3.03037,-1.4201 -0.66077,-0.381 -1.23101,-0.7171 -1.6163,-1.0971 -0.20393,-0.2943 -0.35091,-0.3412 -0.21441,-0.1648 0.0279,0.124 0.023,0.2505 -0.0111,0.4016 -0.0528,0.1383 -0.072,0.2022 -0.0853,0.1977 0.0136,-0.1006 0.31564,-0.2354 0.74768,-0.5093 0.6416,-0.3443 1.40365,-0.6094 2.23676,-0.876 3e-5,0 5e-5,0 8e-5,0 2.59716,-0.8173 5.3727,-1.3018 8.22507,-1.76 3e-5,0 6e-5,0 9e-5,0 4.19442,-0.6664 8.44484,-1.1475 12.7271,-1.5756 12.55301,-1.2536 25.22434,-2.011 37.96968,-2.7194 39.90927,-2.217 80.36786,-3.6821 121.38941,-5.4948 55.81255,-2.8084 112.69366,-5.1346 170.82514,-6.4571 41.2404,-0.9381 83.10916,-1.431 125.64558,-0.6772 15.1218,0.268 30.32616,0.6983 45.60418,1.4579 11.2949,0.5617 22.63055,1.282 33.97356,2.4471 4.2002,0.4315 8.40001,0.9258 12.58833,1.5441 3.22687,0.4764 6.44694,1.0199 9.63432,1.7296 2.25802,0.5033 4.50361,1.0716 6.65891,1.8907 0.75693,0.2878 1.50007,0.6061 2.20304,0.9939 0.52173,0.2887 1.02246,0.6088 1.44254,1.0099 0.30125,0.2907 0.56546,0.6188 0.68638,0.9928 0.10538,0.3118 0.0979,0.6644 -0.0119,0.9798 -0.13408,0.3949 -0.4095,0.7439 -0.72102,1.0588 -0.43483,0.4358 -0.94919,0.7963 -1.48535,1.1261 -1.63291,1.003 -3.44457,1.7056 -5.27096,2.3493 -2.72104,0.958 -5.51263,1.725 -8.32304,2.4246 -8.4752,2.1099 -17.12671,3.6061 -25.81911,4.9665 -12.60055,1.972 -25.32467,3.5558 -38.12803,4.9813 -37.21477,4.1435 -75.11862,6.9627 -113.61627,9.3567 -53.51973,3.3284 -108.22799,5.6723 -164.17515,7.4653 0,0 14.92434,-0.3636 42.91845,-1.2907 13.99706,-0.4636 31.2614,-1.0756 51.55767,-1.9285 20.29627,-0.8528 43.62464,-1.9449 69.74454,-3.4394 16.74878,-0.9582 34.65128,-2.0607 53.63101,-3.4621 18.97973,-1.4014 39.03683,-3.1007 60.08379,-5.3405 12.40517,-1.32 25.16399,-2.8272 38.21609,-4.8057 8.53977,-1.2933 17.24738,-2.7419 25.98412,-4.8713 2.8222,-0.6871 5.66871,-1.4541 8.48864,-2.4305 3e-5,0 5e-5,0 8e-5,0 1.85901,-0.6364 3.78429,-1.3802 5.61435,-2.4805 0.60291,-0.3584 1.22678,-0.8002 1.81437,-1.3715 2e-5,0 5e-5,0 7e-5,0 0.43542,-0.3994 0.85311,-0.9676 1.14765,-1.719 0.23827,-0.6747 0.25274,-1.4069 0.0308,-2.1186 -0.27996,-0.7587 -0.69431,-1.3306 -1.13718,-1.7222 -0.58675,-0.5515 -1.20801,-0.9647 -1.80355,-1.2877 -3e-5,0 -6e-5,0 -8e-5,-1e-4 -0.80357,-0.4454 -1.62117,-0.8031 -2.42594,-1.111 -3e-5,0 -6e-5,0 -8e-5,0 -2.27033,-0.871 -4.59653,-1.477 -6.89856,-1.9978 -3.22443,-0.7332 -6.48601,-1.3016 -9.75767,-1.7995 -4.18672,-0.6377 -8.41209,-1.1568 -12.66412,-1.6132 -3e-5,0 -5e-5,0 -8e-5,0 -11.14806,-1.1967 -22.51777,-1.9845 -34.06672,-2.6106 -14.90958,-0.8086 -30.14038,-1.3201 -45.66679,-1.6628 -40.00745,-0.8832 -82.00713,-0.6666 -125.74956,0.1623 -54.40343,1.0307 -111.51915,3.0694 -170.92242,5.8973 -39.48014,1.6373 -80.01637,2.9971 -121.43575,5.2283 -12.6245,0.6797 -25.3531,1.4166 -38.13625,2.6754 -4.30106,0.4232 -8.62313,0.9073 -12.942,1.5871 -4e-5,0 -8e-5,0 -1.2e-4,0 -2.89058,0.4515 -5.84173,0.9726 -8.75219,1.8729 -0.93147,0.2851 -1.90012,0.6344 -2.85666,1.129 -0.62762,0.2953 -1.33656,0.77 -1.96831,1.5297 -0.23998,0.2955 -0.43981,0.6771 -0.5718,1.1386 -0.11222,0.4447 -0.11996,0.8927 -0.0267,1.322 0.28397,0.9998 0.79557,1.6922 1.30853,2.1004 0.76231,0.7002 1.57794,1.2163 2.35241,1.6366 1.12686,0.6244 2.27863,1.1426 3.41917,1.6112 3e-5,0 7e-5,0 1.1e-4,10e-5 3.4055,1.402 6.89834,2.4922 10.3737,3.5086 11.77968,3.4501 23.81366,6.1062 35.87824,8.7101 18.87656,4.0758 37.98031,7.808 57.23522,11.4867 12.26838,2.3442 24.64305,4.5032 37.1386,6.2935 9.13149,1.3088 18.34091,2.4412 27.63605,3.1034 6.04304,0.4338 12.18301,0.7335 18.35923,0.2806 4e-5,-10e-5 8e-5,-10e-5 1.3e-4,-10e-5 1.91629,-0.1379 3.88313,-0.3609 5.84904,-0.8364 4e-5,0 9e-5,0 1.3e-4,0 1.22274,-0.267 2.59669,-0.7135 3.88078,-1.6347 0.44967,-0.3193 0.88566,-0.7803 1.2401,-1.3949 0.3067,-0.5706 0.44999,-1.2066 0.41695,-1.8584 -0.0583,-0.7042 -0.25645,-1.3052 -0.52938,-1.7837 -0.33839,-0.618 -0.73808,-1.1328 -1.14593,-1.5618 -1.17162,-1.2437 -2.50185,-2.1948 -3.79816,-3.0117 -1.90595,-1.2175 -3.88795,-2.2563 -5.87418,-3.2134 -5.8997,-2.8458 -12.03128,-5.122 -18.17989,-7.23 -8.80667,-3.0222 -17.75811,-5.6532 -26.76952,-8.096 -25.81761,-6.9993 -52.21692,-12.5082 -78.88323,-17.3654 -36.73613,-6.6923 -74.06126,-12.0187 -111.76523,-16.4294 -51.83597,-6.0638 -104.39348,-10.4298 -157.41347,-13.3337 -53.01999,-2.9038 -106.502063,-4.3468 -160.17587441,-4.629 0,0 0,0 0,0 z"
       id="path5930-1-5"
       inkscape:connector-curvature="0"
       sodipodi:nodetypes="cscc"
       inkscape:path-effect="#path-effect5943-2-5"
       inkscape:original-d="m -0.106449,1117.5807 c 503.664209,1.8887 693.730239,111.5212 470.316579,68.9417 -182.17205,-34.7193 -123.0843,-34.2339 75.89459,-42.4983 515.16328,-24.5547 557.71028,26.4434 51.74633,39.6651" />
    <path
       style="fill:#000000;fill-opacity:1;stroke:#d3d3d3;stroke-width:0;stroke-linecap:butt;stroke-linejoin:miter;stroke-miterlimit:4;stroke-opacity:1;stroke-dasharray:none"
       d="m 88.145292,1117.1374 c -15.87592,1.594 -31.73818,3.2736 -47.555773,5.2812 -9.498643,1.2064 -18.978206,2.4541 -28.334329,4.2896 -2.6202584,0.5149 -5.2151738,1.0618 -7.7338494,1.8068 -0.8154452,0.2417 -1.6099463,0.4978 -2.3650602,0.8085 -0.513384,0.2162 -0.9824095,0.423 -1.35380908,0.6903 -0.12171034,0.09 -0.21849925,0.1625 -0.27418831,0.2299 -0.0356454,0.053 -0.0552752,0.063 -0.0339064,0.033 1.71e-6,0 3.41e-6,0 5.12e-6,0 0.0179288,-0.047 0.0177576,-0.1002 0.006126,-0.1777 -0.0268803,-0.065 -0.0256107,-0.082 -0.0190061,-0.058 0.0609329,0.1213 0.29982936,0.2308 0.60609684,0.4085 0.4609571,0.2338 0.983628,0.4115 1.5384384,0.5838 1.08e-5,0 2.15e-5,0 3.22e-5,10e-5 1.7124292,0.5263 3.5131754,0.8562 5.3439546,1.1649 2.6209977,0.4395 5.2676497,0.7747 7.9257517,1.0763 1.2e-5,0 2.3e-5,0 3.5e-5,0 7.346184,0.8333 14.731212,1.3944 22.126124,1.9074 19.981079,1.386 39.999957,2.3189 60.017716,3.3397 6e-6,0 1.2e-5,0 1.7e-5,0 21.187023,1.0803 42.381673,2.1558 63.543873,3.7281 8.86165,0.6584 17.7208,1.3999 26.55381,2.3957 3.61633,0.4078 7.22902,0.8595 10.82963,1.3988 2.93345,0.4393 5.86205,0.9324 8.76455,1.5591 2.15143,0.4642 4.30098,0.9888 6.37857,1.742 1e-5,0 2e-5,0 3e-5,0 0.74806,0.2711 1.48938,0.5746 2.1979,0.9499 0.52704,0.2783 1.04518,0.5993 1.48965,1.017 0.32219,0.2995 0.60781,0.6711 0.7353,1.1168 0.10967,0.4048 0.0543,0.8354 -0.11866,1.2056 -0.22871,0.4864 -0.5995,0.8778 -0.99157,1.2113 -0.57165,0.4897 -1.21176,0.8845 -1.86348,1.2403 -2.067,1.1296 -4.29282,1.9209 -6.51933,2.6512 -3.46542,1.1373 -6.99469,2.0624 -10.53636,2.9191 -11.38037,2.753 -22.91499,4.8032 -34.45977,6.7366 -11.58844,1.9407 -23.19963,3.7743 -34.87391,5.0487 -3.63833,0.3971 -7.28177,0.7408 -10.93186,0.9149 -2.31355,0.1098 -4.62798,0.1844 -6.91275,-0.035 -0.68593,-0.066 -1.36298,-0.155 -2.00616,-0.3374 -2e-5,0 -3e-5,0 -4e-5,0 -0.40031,-0.1203 -0.78361,-0.2439 -1.03476,-0.4861 -0.0789,-0.076 -0.14354,-0.1552 -0.16953,-0.2353 -0.0279,-0.07 -0.0316,-0.157 -0.0174,-0.242 0,0 0,0 0,0 0.0165,-0.1077 0.0715,-0.2211 0.1403,-0.3381 1e-5,-10e-5 1e-5,-10e-5 2e-5,-10e-5 0.0913,-0.1511 0.21224,-0.2931 0.34577,-0.4329 0.38151,-0.3983 0.8432,-0.7313 1.32394,-1.0526 0.67892,-0.4516 1.39517,-0.8533 2.12533,-1.2368 2.09549,-1.1001 4.28122,-2.0322 6.48703,-2.9234 6.85592,-2.769 13.89719,-5.0673 20.96779,-7.2697 0,0 1e-5,0 2e-5,0 9.90255,-3.0841 19.89204,-5.8867 29.92018,-8.5451 25.99413,-6.891 52.24043,-12.807 78.62334,-18.0051 29.89913,-5.8907 59.98531,-10.8366 90.23226,-14.3892 12.16113,-1.4284 24.34704,-2.6263 36.5516,-3.5056 2.62227,-0.1993 5.24552,-0.384 7.8697,-0.553 13.74348,-0.8851 27.51033,-1.3529 41.26184,-1.1175 1e-5,0 2e-5,0 3e-5,0 12.08641,0.2077 24.16125,0.9335 36.08278,2.6881 10e-6,0 2e-5,0 3e-5,0 9.86174,1.4551 19.63859,3.561 28.83655,7.1788 7.26759,2.8713 14.24372,6.6796 19.52231,12.2245 0,0 0,0 0,0 2.30796,2.415 4.27199,5.1554 5.71029,8.1413 0,0 0,0 0,0 1.4605,3.0224 2.38552,6.3097 2.7892,9.6599 0,0 0,0 0,10e-5 0.42759,3.5694 1.26846,7.1031 2.57815,10.4739 1.24295,3.1948 2.90661,6.2227 4.93455,8.9857 4.24373,5.7619 9.95966,10.2605 16.16286,13.6344 10e-6,0 2e-5,0 2e-5,0 7.31127,3.9821 15.26494,6.5735 23.2982,8.4077 10e-6,0 10e-6,0 2e-5,0 0,0 0,0 0,0 9.5989,2.1964 19.39069,3.3436 29.17257,3.9372 23.78002,1.4441 47.61675,-0.2024 71.21092,-2.9051 26.97052,-3.0865 53.73094,-7.7426 80.30022,-13.1867 0,0 10e-6,0 10e-6,0 0,0 0,0 0,0 26.7036,-5.4713 53.22703,-11.7798 79.59862,-18.6392 0,0 0,0 0,0 10e-6,0 2e-5,0 3e-5,0 23.13329,-6.017 46.15252,-12.4652 69.06193,-19.2765 0,0 0,0 0,0 10e-6,0 2e-5,0 3e-5,0 16.28321,-4.8411 32.51423,-9.8623 48.67629,-15.1002 10e-6,0 2e-5,0 3e-5,0 4.54382,-1.4726 9.08305,-2.9625 13.61417,-4.4797 0,0 0,0 0,0 1.196,-0.4005 2.39187,-0.803 3.58711,-1.209 0.3069,-0.1043 0.61398,-0.2088 0.92117,-0.3139 10e-6,0 10e-6,0 2e-5,0 0,0 0,0 0,0 0.008,-0.2293 0.0169,-0.4587 0.0255,-0.6882 -0.0324,-0.1583 -0.0648,-0.3167 -0.0973,-0.475 -0.008,-0.04 -0.0164,-0.08 -0.0245,-0.1199 5.8e-4,-0.015 -0.004,-0.028 -0.008,-0.041 0.004,0.013 0.009,0.026 0.0135,0.039 0.003,0.042 0.0113,0.082 0.0195,0.1216 0.0324,0.1583 0.0648,0.3166 0.0972,0.4749 -0.009,0.2293 -0.0172,0.4584 -0.0258,0.6874 -0.3075,0.1042 -0.61488,0.2079 -0.92207,0.3113 0,0 0,0 0,0 -1.19637,0.4027 -2.39335,0.8018 -3.59046,1.1989 -10e-6,0 -2e-5,0 -3e-5,0 -4.53534,1.5044 -9.07866,2.9815 -13.62651,4.4412 -1e-5,0 -2e-5,0 -3e-5,0 0,0 0,0 0,0 -16.17637,5.1921 -32.42053,10.1671 -48.71602,14.9618 -1e-5,0 -2e-5,0 -3e-5,0 -22.92662,6.7459 -45.96083,13.1283 -69.10627,19.0787 -10e-6,0 -2e-5,0 -3e-5,0 -26.38554,6.7834 -52.91839,13.015 -79.62446,18.4082 -26.57238,5.3664 -53.32537,9.9435 -80.27131,12.9497 -23.5763,2.6313 -47.3646,4.2087 -71.04835,2.7005 0,0 0,0 0,0 -9.74064,-0.6202 -19.47011,-1.7865 -28.98141,-3.9928 0,0 0,0 0,0 -10e-6,0 -2e-5,0 -3e-5,0 -7.9601,-1.846 -15.80688,-4.4223 -22.97215,-8.3574 0,0 0,0 0,0 -10e-6,0 -10e-6,0 -10e-6,0 0,0 0,0 0,0 -6.06949,-3.333 -11.63761,-7.73 -15.71824,-13.3215 -1.95441,-2.6785 -3.55569,-5.6127 -4.74821,-8.704 -1.25831,-3.262 -2.06261,-6.6912 -2.46954,-10.161 0,0 0,0 0,0 -0.40925,-3.4895 -1.36566,-6.921 -2.88509,-10.0926 0,0 0,0 0,0 -1.49977,-3.1304 -3.53724,-5.9945 -5.93129,-8.5109 -5.47451,-5.7536 -12.61014,-9.6977 -19.99401,-12.6201 -9.3362,-3.6965 -19.21825,-5.8603 -29.14486,-7.3482 -12.00423,-1.8 -24.14596,-2.5658 -36.27911,-2.8072 0,0 -1e-5,0 -1e-5,0 -13.80684,-0.2748 -27.62162,0.155 -41.40324,1.0039 -2.71369,0.1672 -5.42628,0.3509 -8.1377,0.5503 -12.1508,0.9108 -24.27734,2.1356 -36.37427,3.5878 -30.28908,3.6361 -60.40204,8.6651 -90.31598,14.638 -26.39538,5.2703 -52.65512,11.2598 -78.66173,18.2248 -10.03293,2.687 -20.03198,5.5199 -29.94783,8.6357 -10e-6,0 -2e-5,0 -3e-5,0 -7.07536,2.2228 -14.14061,4.5498 -21.03686,7.3547 -2.21735,0.9013 -4.43414,1.8547 -6.57923,2.9866 -0.74789,0.3943 -1.49555,0.8173 -2.21935,1.3004 -0.50776,0.3351 -1.02906,0.7202 -1.50238,1.2084 -0.16895,0.173 -0.33752,0.378 -0.48867,0.6222 -1e-5,0 -2e-5,0 -3e-5,0 -0.12083,0.1869 -0.22252,0.4264 -0.28037,0.7161 -0.0477,0.2578 -0.0257,0.5341 0.0722,0.8098 0.11596,0.2823 0.27635,0.5016 0.45661,0.6556 0.49645,0.4178 1.0259,0.6206 1.47408,0.7246 0.74435,0.2048 1.48485,0.3032 2.19708,0.367 2.37653,0.2187 4.74121,0.1392 7.06544,0.02 1e-5,0 3e-5,0 4e-5,0 3.68223,-0.1854 7.34577,-0.5401 10.99303,-0.948 11.70356,-1.3081 23.32799,-3.1739 34.91708,-5.1453 11.54602,-1.9633 23.09691,-4.0473 34.50416,-6.8369 3.55005,-0.8679 7.09849,-1.8082 10.5928,-2.9643 2.23836,-0.7372 4.508,-1.5543 6.64871,-2.7273 0.67659,-0.3685 1.36147,-0.7968 1.99736,-1.3404 0.4402,-0.3608 0.87778,-0.8433 1.19167,-1.4838 0.24744,-0.5207 0.31599,-1.1338 0.15897,-1.7527 -0.2045,-0.6427 -0.56468,-1.1346 -0.95902,-1.4788 -0.52739,-0.4861 -1.10358,-0.8466 -1.66422,-1.1356 -0.75591,-0.3966 -1.5312,-0.7129 -2.30011,-0.9883 -1e-5,0 -1e-5,0 -2e-5,0 -2.13323,-0.7655 -4.3173,-1.294 -6.48338,-1.7543 -2.92693,-0.6239 -5.87242,-1.1124 -8.81584,-1.5453 -3.61379,-0.5319 -7.23628,-0.9755 -10.85931,-1.3746 -1e-5,0 -2e-5,0 -3e-5,0 -8.84905,-0.9748 -17.71837,-1.6945 -26.58561,-2.3306 -21.17604,-1.5191 -42.37694,-2.5409 -63.566422,-3.5673 -1.1e-5,0 -2.3e-5,0 -3.5e-5,0 -20.021556,-0.97 -40.039444,-1.8519 -60.018872,-3.1867 -7.39469,-0.4942 -14.77642,-1.0361 -22.117941,-1.8499 -1.2e-5,0 -2.3e-5,0 -3.5e-5,0 -2.656459,-0.2947 -5.299245,-0.6225 -7.9146904,-1.0541 -1.8287606,-0.3041 -3.6197109,-0.6269 -5.3159079,-1.1439 -5.3e-6,0 -1.06e-5,0 -1.59e-5,0 -0.5497031,-0.1699 -1.0606272,-0.3412 -1.503589,-0.5652 -0.29665587,-0.1775 -0.50985365,-0.2651 -0.52961992,-0.3432 0.010703,-0.01 0.0241982,0.044 0.063333,0.1532 0.0199262,0.1228 0.0173842,0.2174 -0.0141308,0.3012 -3e-6,0 -6e-6,0 -9e-6,0 -0.0376441,0.07 -0.0333894,0.085 -0.0122313,0.044 0.0382771,-0.05 0.12187531,-0.1117 0.23453525,-0.1964 0.34689435,-0.2534 0.80086435,-0.4536 1.30811355,-0.6701 0.7437579,-0.3086 1.5306129,-0.5643 2.3418178,-0.8073 2.5057803,-0.7484 5.0932666,-1.3006 7.7103007,-1.8219 9.343333,-1.8579 18.816805,-3.1294 28.311899,-4.3599 15.810658,-2.0477 31.668271,-3.7675 47.539982,-5.4019 z"
       id="path3123"
       inkscape:connector-curvature="0"
       sodipodi:nodetypes="czzc"
       inkscape:path-effect="#path-effect5155"
       inkscape:original-d="m 88.005213,1115.7942 c -309.476743,32.2742 310.807137,12.4267 76.050827,52.6698 -234.756318,40.2432 340.18716,-131.4503 354.15634,-15.0789 13.96919,116.3716 441.68746,-30.8364 441.68746,-30.8364" />
    <path
       style="fill:#000000;fill-opacity:0.16740088;stroke:#d3d3d3;stroke-width:0;stroke-linecap:butt;stroke-linejoin:miter;stroke-miterlimit:4;stroke-opacity:1;stroke-dasharray:none"
       d="m 93.211784,1118.866 c -15.731003,1.3476 -31.430983,2.7751 -47.079164,4.5175 -9.411262,1.0508 -18.740178,2.1285 -27.907482,3.7642 -2.571007,0.4619 -5.054458,0.9349 -7.408113,1.5818 -0.760117,0.2108 -1.4538364,0.4143 -2.0650684,0.6502 -0.4369587,0.1886 -0.7085737,0.2758 -0.766154,0.3329 -0.00556,0.017 0.071145,-0.066 0.2456259,-0.2382 0.1556031,-0.1158 0.3427026,-0.4549 0.586551,-1.0139 1.99e-5,-10e-5 3.98e-5,-2e-4 5.98e-5,-2e-4 0.2041538,-0.5547 0.2356621,-1.1722 0.1019596,-1.87 -0.2067642,-0.6728 -0.4137122,-1.1122 -0.6441458,-1.3233 -0.5009814,-0.4288 -0.6056557,-0.5863 -0.4252652,-0.3947 0.2194355,0.1279 0.5843445,0.2477 1.0648198,0.4083 9.3e-6,0 1.85e-5,0 2.78e-5,0 1.4789185,0.4726 3.1381875,0.7845 4.9168695,1.1039 2.518286,0.4432 5.088266,0.7908 7.694187,1.1105 7.202771,0.8825 14.476086,1.5064 21.785138,2.0869 19.743465,1.5669 39.555269,2.6993 59.38048,3.9172 1e-5,0 2e-5,0 3e-5,0 20.97722,1.2884 41.97611,2.5732 62.942,4.3363 8.77801,0.7381 17.5589,1.557 26.31466,2.6211 3.58407,0.4355 7.16696,0.9139 10.73923,1.4769 2.90851,0.4583 5.81739,0.9697 8.70391,1.6107 2.13466,0.4729 4.2813,1.0093 6.36788,1.7706 1e-5,0 2e-5,0 3e-5,0 0.74997,0.2732 1.50156,0.5828 2.22853,0.9665 0.53711,0.2801 1.08114,0.6184 1.56707,1.0671 0.35585,0.3149 0.67992,0.7461 0.84834,1.2945 0.13236,0.5173 0.0636,1.0377 -0.15467,1.4755 -0.28274,0.5543 -0.69166,0.9731 -1.10712,1.3007 -0.60788,0.4933 -1.26859,0.8805 -1.92896,1.2199 -2.10193,1.084 -4.33137,1.8256 -6.54737,2.5023 -3.46001,1.059 -6.97126,1.9096 -10.49016,2.6932 -11.31817,2.5207 -22.76216,4.3581 -34.2166,6.0841 -11.50322,1.7332 -23.02253,3.3621 -34.58023,4.4498 -3.60347,0.3389 -7.20397,0.6261 -10.79893,0.7495 -1e-5,0 -3e-5,0 -4e-5,0 -2.28574,0.077 -4.5437,0.1216 -6.73644,-0.1128 -0.65888,-0.073 -1.28016,-0.1575 -1.83787,-0.3229 -10e-6,0 -2e-5,0 -3e-5,0 -0.35927,-0.1337 -0.62087,-0.194 -0.66932,-0.2933 0.006,-0.013 0.0235,0.025 0.0773,0.1171 0.0346,0.1065 0.0481,0.1838 0.034,0.251 0,0 0,0 0,0 -0.0188,0.052 -0.003,0.05 0.0211,-0 0,0 0,0 10e-6,0 0.0409,-0.068 0.12151,-0.1503 0.2251,-0.2564 0.30583,-0.3074 0.71549,-0.5797 1.17136,-0.8728 0.64008,-0.4031 1.32633,-0.7652 2.03739,-1.1181 2.04644,-1.0141 4.19138,-1.8716 6.37247,-2.6994 6.78654,-2.5723 13.75445,-4.6905 20.76908,-6.725 0,0 1e-5,0 1e-5,0 9.82587,-2.8481 19.73272,-5.4236 29.67974,-7.8618 25.80217,-6.3241 51.82432,-11.702 77.96625,-16.3884 29.64559,-5.3135 59.43284,-9.7107 89.32139,-12.7627 11.80231,-1.2052 23.61366,-2.1961 35.42577,-2.8926 2.80223,-0.2106 5.60503,-0.4045 8.40835,-0.5809 13.53683,-0.8506 27.0683,-1.3028 40.55843,-1.0816 1e-5,0 2e-5,0 3e-5,0 11.85942,0.1978 23.65232,0.879 35.24627,2.5376 1e-5,0 2e-5,0 3e-5,0 9.58603,1.3853 18.97785,3.3303 27.70849,6.6808 6.83968,2.678 13.27021,6.0061 17.91206,10.8288 2.00323,2.0458 3.7061,4.3343 4.91743,6.7959 1.23142,2.4629 2.02107,5.1924 2.37165,7.9874 0,0 0,0 0,0 0.46095,3.7612 1.38398,7.5039 2.8181,11.1006 1.37346,3.426 3.20159,6.6535 5.4198,9.5891 4.71466,6.1583 10.82437,10.8459 17.33867,14.2533 7.70455,4.056 15.91108,6.6637 24.08191,8.4579 10e-6,0 2e-5,0 3e-5,0 9.79257,2.1692 19.69838,3.2986 29.52724,3.8701 23.89098,1.3933 47.72154,-0.2046 71.21319,-2.8365 26.8551,-2.9974 53.47531,-7.5055 79.8786,-12.7745 10e-6,0 2e-5,0 3e-5,0 26.52203,-5.291 52.86112,-11.3883 79.04375,-18.0171 22.95547,-5.8114 45.79997,-12.0391 68.53732,-18.6179 10e-6,0 2e-5,0 3e-5,0 16.15344,-4.6736 32.26054,-9.5225 48.30538,-14.5825 4.50961,-1.4221 9.01757,-2.862 13.52053,-4.3291 1e-5,0 1e-5,0 2e-5,0 1.18953,-0.3876 2.38043,-0.7777 3.57223,-1.1716 0.40944,-0.136 0.81888,-0.2719 1.22832,-0.4079 -0.54213,-1.6277 -1.08419,-3.2551 -1.62628,-4.8826 0.54212,1.6276 1.08422,3.2551 1.62628,4.8826 -0.41098,0.1313 -0.82196,0.2626 -1.23293,0.3939 -1.19624,0.3805 -2.39151,0.757 -3.58538,1.131 -4.51944,1.4158 -9.04331,2.8041 -13.56862,4.1747 -16.10065,4.8763 -32.25892,9.5402 -48.46013,14.028 -10e-6,0 -2e-5,0 -3e-5,0 -22.80441,6.317 -45.7072,12.2806 -68.70995,17.8254 -10e-6,0 -2e-5,0 -3e-5,0 -26.23692,6.3247 -52.61266,12.1141 -79.14424,17.0928 -26.41527,4.9575 -53.00647,9.15 -79.76582,11.8267 -23.42212,2.3462 -47.06416,3.6678 -70.58053,2.0172 -9.66867,-0.6783 -19.33156,-1.8861 -28.78195,-4.099 -7.88706,-1.8447 -15.67363,-4.3983 -22.80025,-8.277 -1e-5,0 -2e-5,0 -3e-5,0 -5.98935,-3.2579 -11.50546,-7.5482 -15.55137,-13.0276 -1.91813,-2.5994 -3.48975,-5.4488 -4.65346,-8.4527 -1.22164,-3.1539 -1.99391,-6.469 -2.37021,-9.8193 0,-10e-5 0,-10e-5 0,-10e-5 -0.37841,-3.3692 -1.30253,-6.687 -2.78199,-9.7523 -1.47093,-3.0469 -3.4771,-5.83 -5.82971,-8.2733 -5.43738,-5.6439 -12.50471,-9.502 -19.79357,-12.3712 -9.27281,-3.6561 -19.07553,-5.8268 -28.9122,-7.3419 -10e-6,0 -10e-6,0 -2e-5,0 -11.91542,-1.8377 -23.96816,-2.6782 -36.00888,-3.0108 0,0 -1e-5,0 -1e-5,0 -13.70492,-0.3794 -27.42259,-0.08 -41.10761,0.6255 -2.91598,0.1501 -5.83091,0.3191 -8.74467,0.5056 -11.83895,0.826 -23.65533,1.9422 -35.44343,3.2701 -30.05275,3.3853 -59.94444,8.1138 -89.64802,13.756 -26.19067,4.9743 -52.26557,10.6455 -78.11681,17.265 -9.96585,2.5516 -19.91032,5.2477 -29.78848,8.2218 -10e-6,0 -2e-5,0 -4e-5,0 -7.03323,2.1155 -14.09556,4.3469 -21.04113,7.0597 -2.22629,0.8673 -4.49406,1.8073 -6.73714,2.9448 -0.781,0.3946 -1.59234,0.8391 -2.41171,1.3647 -0.56201,0.3452 -1.21198,0.8219 -1.89065,1.4841 -0.24664,0.2355 -0.5228,0.57 -0.81161,1.0113 -1e-5,0 -2e-5,10e-5 -3e-5,10e-5 -0.23949,0.3316 -0.45029,0.8467 -0.60732,1.5434 -1e-5,10e-5 -3e-5,10e-5 -4e-5,2e-4 -0.12715,0.6468 -0.0637,1.3471 0.19637,2.0815 0.32573,0.7324 0.7019,1.2559 1.10331,1.5687 1.03356,0.7844 1.87522,1.1512 2.41312,1.216 0,0 1e-5,0 2e-5,0 0.95347,0.2503 1.82248,0.3719 2.5832,0.4341 2.55007,0.2309 5.00365,0.1657 7.33097,0.054 1e-5,0 2e-5,0 3e-5,0 3.72018,-0.1684 7.39899,-0.4993 11.03735,-0.8808 11.67181,-1.2222 23.24275,-2.9792 34.74855,-4.8353 11.4592,-1.8455 22.96687,-3.8177 34.3902,-6.4838 3.55156,-0.8278 7.138,-1.738 10.71141,-2.8707 2.26155,-0.7035 4.66403,-1.5449 7.05814,-2.7969 0.75803,-0.3876 1.59794,-0.9054 2.46489,-1.6099 1e-5,0 2e-5,0 2e-5,0 0.60676,-0.4289 1.28978,-1.212 1.92825,-2.3898 0.53126,-1.0509 0.6557,-2.3203 0.32453,-3.7213 -0.49385,-1.3541 -1.12532,-2.27 -1.77073,-2.7521 -0.82104,-0.7175 -1.59741,-1.209 -2.26581,-1.5289 -0.91473,-0.4657 -1.80035,-0.8237 -2.63184,-1.1126 -10e-6,0 -2e-5,0 -3e-5,0 -2.30513,-0.8076 -4.58696,-1.3579 -6.77853,-1.8145 -2.98197,-0.629 -5.9568,-1.1212 -8.90414,-1.5536 -3.62376,-0.5327 -7.24483,-0.9785 -10.85509,-1.3793 -10e-6,0 -3e-5,0 -4e-5,0 -8.81826,-0.9793 -17.63876,-1.7108 -26.43855,-2.3594 -21.01984,-1.5499 -42.04305,-2.6194 -63.02985,-3.6918 -1e-5,0 -2e-5,0 -3e-5,0 -19.840036,-1.0142 -39.648009,-1.9419 -59.385076,-3.3038 -7.308196,-0.505 -14.568666,-1.052 -21.753278,-1.8567 -2.599532,-0.2918 -5.154436,-0.6098 -7.65107,-1.0221 -1.770887,-0.3009 -3.391835,-0.5846 -4.8071674,-1.0209 -4.5e-6,0 -8.9e-6,0 -1.33e-5,0 -0.4606458,-0.1509 -0.7792939,-0.2462 -0.9275905,-0.336 -0.1440106,-0.1927 0.064046,0.051 0.7328559,0.6506 0.3012054,0.2839 0.569604,0.8521 0.8286143,1.7085 0.1687944,0.885 0.1259503,1.6718 -0.1354168,2.3782 -1.27e-5,0 -2.55e-5,0 -3.83e-5,1e-4 -0.3123024,0.7169 -0.5629369,1.1589 -0.7772225,1.3237 -0.2454374,0.2418 -0.3753907,0.3688 -0.4056999,0.3699 -0.040239,-0 0.1716539,-0.065 0.5848644,-0.2556 0.5665219,-0.2282 1.2302111,-0.4307 1.9737771,-0.6466 2.303158,-0.6614 4.757564,-1.1555 7.316028,-1.6435 9.117386,-1.726 18.422557,-2.8987 27.820004,-4.0464 15.62115,-1.9029 31.303018,-3.492 47.017623,-5.0014 z"
       id="path3123-0-2"
       inkscape:connector-curvature="0"
       sodipodi:nodetypes="czzc"
       inkscape:path-effect="#path-effect5155-2-0"
       inkscape:original-d="m 92.666975,1113.4915 c -306.586435,31.0787 307.904405,11.9663 75.340565,50.7189 -232.563851,38.7526 337.01003,-126.5814 350.84875,-14.5204 13.83873,112.0612 437.5624,-29.6943 437.5624,-29.6943" />
    <path
       style="fill:#000000;fill-opacity:0.19823788;stroke:#d3d3d3;stroke-width:0;stroke-linecap:butt;stroke-linejoin:miter;stroke-miterlimit:4;stroke-opacity:1;stroke-dasharray:none"
       d="m 91.82641,1118.1725 c -15.728811,1.4401 -31.435603,2.9613 -47.095511,4.7981 -9.409685,1.1053 -18.768869,2.244 -27.989067,3.9453 -2.582926,0.4786 -5.109769,0.9781 -7.5354832,1.6604 -0.7838145,0.2217 -1.5242317,0.4467 -2.2044817,0.7144 -0.4725823,0.1983 -0.8404255,0.3411 -1.0536332,0.4987 -0.062869,0.052 -0.071929,0.045 -0.011485,-0.01 0.061027,-0.033 0.1461503,-0.1999 0.2806592,-0.4987 0.1128278,-0.3048 0.128785,-0.6448 0.054996,-1.0376 -0.1185805,-0.3733 -0.2228198,-0.605 -0.3360859,-0.6996 -0.2217876,-0.1572 -0.1567079,-0.1846 0.085447,0 0.3387433,0.177 0.7801095,0.3223 1.2950729,0.4856 9.9e-6,0 1.99e-5,0 2.98e-5,0 1.5891109,0.4903 3.3105671,0.8051 5.1064161,1.1135 2.55795,0.4335 5.153946,0.7689 7.773432,1.0742 7.240915,0.843 14.535504,1.4256 21.852749,1.9635 19.769562,1.4523 39.591191,2.4692 59.419085,3.5711 0,0 1e-5,0 1e-5,0 20.98298,1.166 41.98046,2.3277 62.94621,3.968 8.77812,0.6867 17.55656,1.4537 26.31017,2.466 1e-5,0 2e-5,0 3e-5,0 3.5831,0.4143 7.16392,0.8712 10.73376,1.4127 2.9069,0.4408 5.81176,0.9341 8.69319,1.5567 2.1322,0.4599 4.26966,0.9805 6.34322,1.7244 1e-5,0 2e-5,0 3e-5,0 0.74505,0.267 1.48783,0.5679 2.2028,0.9407 0.52882,0.2737 1.0573,0.5969 1.52139,1.0233 0.33659,0.3007 0.64084,0.6951 0.78899,1.1861 0.12069,0.4546 0.0586,0.9236 -0.13625,1.3208 -0.25564,0.5133 -0.6441,0.9106 -1.04508,1.2341 -1e-5,0 -1e-5,0 -2e-5,0 -0.58801,0.4831 -1.23518,0.8664 -1.88742,1.2069 -2.07716,1.0871 -4.29327,1.8378 -6.50265,2.5271 -3.44767,1.0772 -6.95097,1.9475 -10.46386,2.7513 -11.29887,2.5856 -22.73295,4.4902 -34.177,6.283 -11.49271,1.8002 -23.0041,3.4967 -34.56408,4.6531 -3.60414,0.3604 -7.20913,0.6692 -10.81439,0.8144 -10e-6,0 -10e-6,0 -2e-5,0 -2.28888,0.091 -4.56409,0.1493 -6.79253,-0.074 -0.66907,-0.068 -1.31495,-0.1534 -1.91288,-0.3241 -2e-5,0 -3e-5,0 -4e-5,0 -0.37756,-0.1248 -0.69763,-0.2135 -0.84679,-0.3805 -0.0354,-0.043 -0.0584,-0.061 -0.0437,-0.052 0.004,0.021 0.009,0.02 0.009,0.014 0,0 0,0 0,0 -0.002,-0.025 0.0331,-0.079 0.0789,-0.1616 10e-6,0 10e-6,0 10e-6,0 0.0655,-0.1062 0.1654,-0.2154 0.28302,-0.3356 0.34225,-0.3458 0.7754,-0.6417 1.2409,-0.9426 0.65675,-0.4192 1.35448,-0.7935 2.07128,-1.1543 2.06248,-1.0373 4.2171,-1.9143 6.39935,-2.7567 6.79225,-2.6202 13.76271,-4.7847 20.77038,-6.8612 9.81967,-2.9088 19.72073,-5.545 29.66005,-8.043 25.78224,-6.4794 51.79286,-12.0143 77.92733,-16.8575 29.63773,-5.4917 59.43387,-10.069 89.3556,-13.3027 11.8159,-1.2769 23.64742,-2.3397 35.48769,-3.1082 2.81018,-0.2107 5.62119,-0.4048 8.43297,-0.5813 13.57677,-0.8515 27.16162,-1.3029 40.71848,-1.0789 11.91577,0.1988 23.79252,0.8885 35.49761,2.5631 9.67296,1.3925 19.20868,3.3764 28.13981,6.7972 7.00521,2.7164 13.67333,6.2014 18.62445,11.2988 2.1389,2.1799 3.96355,4.6402 5.28277,7.3114 1.33513,2.6787 2.1888,5.6233 2.56381,8.6325 0.44298,3.605 1.32281,7.1818 2.68855,10.6031 1.30551,3.2588 3.04634,6.3325 5.15795,9.1279 4.47575,5.8743 10.36555,10.3759 16.67885,13.6948 7.48454,3.951 15.52383,6.4983 23.57987,8.2766 10e-6,0 2e-5,0 3e-5,0 9.65408,2.1429 19.45484,3.259 29.21185,3.8304 23.72325,1.3919 47.44217,-0.1995 70.87739,-2.8171 26.7813,-2.9841 53.34659,-7.4796 79.7135,-12.7363 26.48356,-5.279 52.79112,-11.3649 78.949,-17.983 10e-6,0 2e-5,0 3e-5,0 22.9334,-5.8021 45.75776,-12.0206 68.47686,-18.5903 16.14078,-4.6673 32.23389,-9.5093 48.26343,-14.5617 4.50532,-1.4201 9.00768,-2.8574 13.50373,-4.3215 10e-6,0 2e-5,0 3e-5,0 1.1873,-0.3867 2.37524,-0.7756 3.56333,-1.1681 0.40824,-0.1355 0.81648,-0.271 1.22472,-0.4065 -0.33877,-1.0171 -0.67755,-2.0342 -1.01636,-3.0514 0.33881,1.0172 0.67759,2.0343 1.01636,3.0514 -0.4092,0.1326 -0.8184,0.2652 -1.2276,0.3978 -1.19087,0.3841 -2.38154,0.7645 -3.57154,1.1427 -10e-6,0 -2e-5,0 -3e-5,0 -4.50636,1.432 -9.01865,2.8371 -13.53379,4.2249 -16.06441,4.9377 -32.18948,9.664 -48.36011,14.2152 -10e-6,0 -2e-5,0 -3e-5,0 -22.76103,6.4061 -45.62183,12.4595 -68.58479,18.095 0,0 -10e-6,0 -10e-6,0 -26.19182,6.428 -52.52228,12.3215 -79.01181,17.4052 -10e-6,0 -2e-5,0 -3e-5,0 -26.37439,5.0621 -52.92153,9.3603 -79.64297,12.1441 -23.39176,2.439 -46.99286,3.8577 -70.48197,2.305 -9.6569,-0.6381 -19.30583,-1.8034 -28.74605,-3.9735 -7.87868,-1.8098 -15.65549,-4.3233 -22.77883,-8.1635 -10e-6,0 -2e-5,0 -3e-5,0 -5.98521,-3.2255 -11.504,-7.4788 -15.56179,-12.9288 -1.92405,-2.5852 -3.50456,-5.4227 -4.67898,-8.4176 -1.23294,-3.1445 -2.01854,-6.4541 -2.40862,-9.8023 0,0 0,0 0,0 -0.3924,-3.3682 -1.33012,-6.6805 -2.82027,-9.7356 -1.48148,-3.037 -3.49569,-5.8064 -5.85296,-8.2348 -5.44831,-5.6107 -12.51444,-9.4269 -19.80038,-12.2628 -9.26997,-3.6118 -19.06249,-5.7368 -28.89209,-7.2104 -10e-6,0 -2e-5,0 -3e-5,0 -11.906,-1.7865 -23.94515,-2.5757 -35.97422,-2.8589 -1e-5,0 -1e-5,0 -2e-5,0 -13.69109,-0.3228 -27.39233,0.033 -41.06171,0.7939 -2.9126,0.162 -5.82406,0.3428 -8.73431,0.5411 -11.82655,0.8485 -23.63083,1.9872 -35.4076,3.3373 -30.02434,3.442 -59.88576,8.2264 -89.55973,13.9235 -26.16493,5.0231 -52.20853,10.7413 -78.02143,17.4053 -9.95109,2.5689 -19.87567,5.2805 -29.72802,8.268 -7.0193,2.1272 -14.04878,4.3625 -20.94043,7.0704 -2.21049,0.8671 -4.44188,1.7957 -6.62726,2.9101 -0.76052,0.3869 -1.53643,0.8127 -2.30523,1.3085 -0.53184,0.3334 -1.11518,0.7571 -1.69046,1.3247 -0.20703,0.2009 -0.4292,0.4676 -0.64959,0.8074 0,0 -1e-5,0 -2e-5,0 -0.18021,0.2564 -0.33699,0.6316 -0.44526,1.1239 -10e-6,10e-5 -2e-5,10e-5 -3e-5,10e-5 -0.0879,0.4519 -0.0448,0.9395 0.13516,1.4436 0.22249,0.5065 0.49141,0.8756 0.78154,1.1057 0.76485,0.5952 1.44747,0.8754 1.93668,0.9572 0,0 1e-5,0 2e-5,0 0.84529,0.2238 1.646,0.3318 2.37871,0.3936 2.45178,0.2208 4.84924,0.15 7.16411,0.037 1e-5,0 3e-5,0 4e-5,0 3.6835,-0.1734 7.33744,-0.5095 10.96338,-0.8966 11.6313,-1.2404 23.17496,-3.0169 34.66929,-4.894 11.44702,-1.8675 22.9209,-3.8563 34.28548,-6.5328 3.53331,-0.8314 7.0836,-1.739 10.60216,-2.8622 2.23783,-0.7061 4.56209,-1.5192 6.82188,-2.7112 0.71327,-0.3707 1.47246,-0.8356 2.22239,-1.4508 1e-5,0 1e-5,0 2e-5,0 0.52053,-0.3868 1.08031,-1.0118 1.55828,-1.9147 0.39046,-0.7803 0.48736,-1.7176 0.24242,-2.7244 -0.35155,-0.9946 -0.84793,-1.6919 -1.36549,-2.0971 -0.67354,-0.5944 -1.34723,-1.0134 -1.9581,-1.3119 -0.83233,-0.4241 -1.65889,-0.7552 -2.45489,-1.0321 0,0 -1e-5,0 -2e-5,0 -2.21015,-0.7728 -4.43211,-1.3021 -6.59987,-1.7518 -2.94109,-0.6151 -5.88716,-1.0963 -8.81834,-1.521 -3.60203,-0.5226 -7.20672,-0.9591 -10.80619,-1.3517 -1e-5,0 -2e-5,0 -3e-5,0 -8.79268,-0.9593 -17.59586,-1.6717 -26.3876,-2.3025 -20.99948,-1.507 -42.01215,-2.5342 -63.00112,-3.5651 -1e-5,0 -2e-5,0 -3e-5,0 -19.837151,-0.9747 -39.656379,-1.8636 -59.421937,-3.1878 -7.316705,-0.4906 -14.60326,-1.0252 -21.832819,-1.8196 -6e-6,0 -1.2e-5,0 -1.7e-5,0 -2.615494,-0.2879 -5.202067,-0.6048 -7.746484,-1.0189 -1.79098,-0.2968 -3.4884875,-0.594 -5.0378594,-1.0616 -4.8e-6,0 -9.7e-6,0 -1.45e-5,0 -0.5025699,-0.1572 -0.9150232,-0.2873 -1.2093046,-0.4404 -0.2194174,-0.1827 -0.2198833,-0.1013 0.1067973,0.1625 0.1574984,0.1402 0.3001444,0.4523 0.4513787,0.9404 0.095714,0.5098 0.072683,0.9556 -0.075871,1.3552 -7.3e-6,0 -1.45e-5,0 -2.18e-5,0 -0.1772926,0.3974 -0.302125,0.629 -0.3998289,0.6923 -0.104792,0.098 -0.1290109,0.1322 -0.088561,0.092 0.1520705,-0.1239 0.4825875,-0.2509 0.9403272,-0.4503 0.6523062,-0.2629 1.3739545,-0.4872 2.1474244,-0.7121 2.3941536,-0.6914 4.9028446,-1.2041 7.4779306,-1.699 9.189,-1.7577 18.533343,-2.9558 27.934393,-4.1217 15.643013,-1.9371 31.338486,-3.5593 47.057048,-5.1005 z"
       id="path3123-0"
       inkscape:connector-curvature="0"
       sodipodi:nodetypes="czzc"
       inkscape:path-effect="#path-effect5155-2"
       inkscape:original-d="m 91.485904,1114.8135 c -306.586434,31.0787 307.904406,11.9663 75.340566,50.7189 -232.563852,38.7526 337.01003,-126.5814 350.84875,-14.5204 13.83873,112.0612 437.5624,-29.6943 437.5624,-29.6943" />
  </g>
</svg>
